# Blender v3.0.0 OBJ File: ''
# www.blender.org
mtllib ForestRiverCrossing.mtl
o ForestCrossing_01_Plane.100
v -0.500000 -0.000000 0.500000
v 0.500000 -0.000000 0.500000
v -0.500000 0.000000 -0.500000
v 0.500000 0.000000 -0.500000
v -0.500000 0.050000 -0.500000
v -0.500000 0.050000 0.500000
v 0.500000 0.050000 0.500000
v 0.500000 0.050000 -0.500000
v -0.500000 0.000000 -0.166667
v -0.500000 -0.000000 0.166667
v 0.500000 -0.000000 0.166667
v 0.500000 0.000000 -0.166667
v -0.166667 0.100000 0.500000
v 0.499798 0.048655 0.164842
v 0.499798 0.048655 -0.168491
v -0.166667 -0.000000 0.500000
v 0.166667 -0.000000 0.500000
v 0.166667 0.000000 -0.500000
v -0.166667 0.000000 -0.500000
v -0.166869 0.048655 0.498176
v 0.166464 0.048655 -0.501824
v -0.166869 0.048655 -0.501824
v -0.166869 0.048655 0.164842
v 0.166464 0.048655 -0.168491
v -0.166667 -0.000000 0.166667
v 0.166667 -0.000000 0.166667
v -0.166667 0.000000 -0.166667
v 0.166667 0.000000 -0.166667
v -0.500000 0.100000 0.166667
v -0.500000 0.100000 0.500000
v 0.166667 0.100000 0.500000
v 0.500000 0.100000 0.500000
v 0.500000 0.100000 -0.166667
v 0.500000 0.100000 -0.500000
v -0.166667 0.100000 -0.500000
v -0.500000 0.100000 -0.500000
v 0.500000 0.100000 0.166667
v -0.166667 0.100000 0.166667
v -0.166667 0.100000 -0.166667
v 0.166667 0.100000 -0.500000
v 0.166667 0.100000 0.166667
v 0.166667 0.100000 -0.166667
v -0.500202 0.048655 0.164842
v -0.500202 0.048655 -0.168491
v -0.500000 0.100000 -0.166667
v -0.166869 0.048655 -0.168491
v 0.166464 0.048655 0.498176
v 0.166464 0.048655 0.164842
vt 0.560865 0.564862
vt 0.704759 0.564862
vt 0.704759 0.708756
vt 0.560865 0.708756
vt 0.776533 0.769612
vt 0.983388 0.769612
vt 0.983388 0.976467
vt 0.776533 0.976467
vt 0.560865 0.564862
vt 0.704759 0.564862
vt 0.704759 0.708756
vt 0.560865 0.708756
vt 0.560865 0.564862
vt 0.704759 0.564862
vt 0.704759 0.708756
vt 0.560865 0.708756
vt 0.560865 0.564862
vt 0.704759 0.564862
vt 0.704759 0.708756
vt 0.560865 0.708756
vt 0.560865 0.564862
vt 0.704759 0.564862
vt 0.704759 0.708756
vt 0.560865 0.708756
vt 0.560865 0.564862
vt 0.704759 0.564862
vt 0.704759 0.708756
vt 0.560865 0.708756
vt 0.560865 0.564862
vt 0.704759 0.564862
vt 0.704759 0.708756
vt 0.560865 0.708756
vt 0.776533 0.769612
vt 0.983388 0.769612
vt 0.983388 0.976467
vt 0.776533 0.976467
vt 0.704759 0.564862
vt 0.704759 0.708756
vt 0.560865 0.708756
vt 0.560865 0.564862
vt 0.704759 0.564862
vt 0.704759 0.708756
vt 0.560865 0.708756
vt 0.704759 0.708756
vt 0.560865 0.708756
vt 0.560865 0.564862
vt 0.704759 0.564862
vt 0.704759 0.708756
vt 0.560865 0.708756
vt 0.560865 0.564862
vt 0.704759 0.564862
vt 0.704759 0.708756
vt 0.560865 0.708756
vt 0.560865 0.564862
vt 0.704759 0.564862
vt 0.704759 0.708756
vt 0.560865 0.708756
vt 0.776533 0.769612
vt 0.983388 0.769612
vt 0.983388 0.976467
vt 0.776533 0.976467
vt 0.776533 0.769612
vt 0.983388 0.769612
vt 0.983388 0.976467
vt 0.776533 0.976467
vt 0.704759 0.564862
vt 0.704759 0.708756
vt 0.560865 0.708756
vt 0.560865 0.564862
vt 0.704759 0.708756
vt 0.560865 0.708756
vt 0.776533 0.769612
vt 0.983388 0.769612
vt 0.983388 0.976467
vt 0.776533 0.976467
vt 0.560865 0.564862
vt 0.704759 0.708756
vt 0.560865 0.708756
vt 0.560865 0.564862
vt 0.704759 0.564862
vt 0.704759 0.708756
vt 0.560865 0.708756
vt 0.776533 0.769612
vt 0.983388 0.769612
vt 0.776533 0.976467
vt 0.776533 0.769612
vt 0.983388 0.769612
vt 0.983388 0.976467
vt 0.776533 0.976467
vt 0.776533 0.769612
vt 0.983388 0.769612
vt 0.983388 0.976467
vt 0.776533 0.976467
vt 0.776533 0.769612
vt 0.983388 0.769612
vt 0.983388 0.976467
vt 0.776533 0.769612
vt 0.983388 0.769612
vt 0.983388 0.976467
vt 0.776533 0.976467
vt 0.776533 0.769612
vt 0.983388 0.769612
vt 0.776533 0.976467
vt 0.776533 0.769612
vt 0.983388 0.769612
vt 0.983388 0.976467
vt 0.776533 0.769612
vt 0.983388 0.769612
vt 0.776533 0.976467
vt 0.776533 0.769612
vt 0.983388 0.769612
vt 0.983388 0.976467
vt 0.776533 0.976467
vt 0.776533 0.769612
vt 0.983388 0.769612
vt 0.983388 0.976467
vt 0.776533 0.976467
vt 0.776533 0.769612
vt 0.983388 0.769612
vt 0.983388 0.976467
vt 0.776533 0.769612
vt 0.983388 0.769612
vt 0.776533 0.976467
vt 0.776533 0.769612
vt 0.983388 0.769612
vt 0.983388 0.976467
vt 0.776533 0.976467
vt 0.776533 0.769612
vt 0.983388 0.769612
vt 0.983388 0.976467
vt 0.776533 0.976467
vt 0.776533 0.769612
vt 0.983388 0.769612
vt 0.983388 0.976467
vt 0.704759 0.708756
vt 0.560865 0.708756
vt 0.560865 0.566635
vt 0.704759 0.566635
vt 0.704759 0.710529
vt 0.560865 0.710529
vt 0.526500 0.521578
vt 0.726500 0.521578
vt 0.726500 0.721578
vt 0.526500 0.721578
vt 0.526500 0.521578
vt 0.726500 0.521578
vt 0.726500 0.721578
vt 0.526500 0.721578
vt 0.704759 0.564862
vt 0.704759 0.708756
vt 0.560865 0.708756
vt 0.560865 0.566635
vt 0.704759 0.566635
vt 0.704759 0.710529
vt 0.560865 0.710529
vt 0.526500 0.521578
vt 0.726500 0.521578
vt 0.726500 0.721578
vt 0.526500 0.721578
vt 0.526533 0.519612
vt 0.733388 0.519612
vt 0.733388 0.726467
vt 0.526533 0.726467
vt 0.526533 0.519612
vt 0.733388 0.519612
vt 0.733388 0.726467
vt 0.526533 0.726467
vn 0.0000 -1.0000 -0.0000
vn -1.0000 -0.0000 -0.0003
vn -1.0000 -0.0014 -0.0002
vn -1.0000 0.0020 -0.0003
vn -0.0014 -0.0280 -0.9996
vn -0.0028 -0.0185 -0.9998
vn -0.0027 -0.0002 -1.0000
vn -0.0018 -0.0126 -0.9999
vn -0.0014 0.0280 0.9996
vn -0.0028 0.0185 0.9998
vn -0.0027 0.0002 1.0000
vn -0.0018 0.0127 0.9999
vn 1.0000 0.0031 0.0002
vn 1.0000 0.0021 0.0003
vn 1.0000 0.0000 0.0003
vn 1.0000 0.0014 0.0002
vn -1.0000 -0.0031 0.0002
vn -1.0000 -0.0020 0.0003
vn -1.0000 -0.0000 0.0003
vn -1.0000 -0.0014 0.0002
vn -1.0000 -0.0021 -0.0003
vn -1.0000 -0.0031 -0.0002
vn 1.0000 0.0020 -0.0003
vn 1.0000 0.0031 -0.0002
vn 1.0000 0.0015 -0.0002
vn 1.0000 0.0000 -0.0003
vn 0.0000 -0.0355 0.9994
vn -0.0027 0.0180 -0.9998
vn 0.0000 0.0355 -0.9994
vn 0.0028 0.0185 0.9998
vn 0.0014 0.0280 0.9996
vn 0.0018 0.0126 0.9999
vn 0.0027 0.0002 1.0000
vn 0.0028 -0.0185 -0.9998
vn 0.0014 -0.0280 -0.9996
vn 0.0018 -0.0127 -0.9999
vn 0.0027 -0.0002 -1.0000
vn 1.0000 -0.0020 0.0003
vn 0.0000 1.0000 0.0000
vn 0.0027 -0.0180 0.9998
vn 1.0000 -0.0020 -0.0003
vn -1.0000 0.0020 0.0003
vn 1.0000 -0.0039 -0.0000
vn 0.0027 0.0180 -0.9998
vn -0.0027 -0.0180 0.9998
vn -1.0000 0.0039 0.0000
usemtl Forest_M.002
s 1
f 28/1/1 18/2/1 4/3/1 12/4/1
f 5/5/2 44/6/3 45/7/4 36/8/4
f 19/9/5 3/10/6 5/11/7 22/12/8
f 17/13/9 2/14/10 7/15/11 47/16/12
f 12/17/13 4/18/14 8/19/15 15/20/16
f 10/21/17 1/22/18 6/23/19 43/24/20
f 3/25/21 9/26/22 44/27/3 5/28/2
f 2/29/23 11/30/24 14/31/25 7/32/26
f 24/33/27 15/34/27 33/35/27 42/36/27
f 17/13/1 26/37/1 11/38/1 2/39/1
f 26/40/1 28/41/1 12/42/1 11/43/1
f 10/21/1 9/26/1 27/44/1 25/45/1
f 25/46/1 27/47/1 28/48/1 26/49/1
f 1/50/1 10/51/1 25/52/1 16/53/1
f 16/54/1 25/55/1 26/56/1 17/57/1
f 22/58/8 5/59/7 36/60/28 35/61/28
f 14/62/29 48/63/29 41/64/29 37/65/29
f 1/50/30 16/66/31 20/67/32 6/68/33
f 4/69/34 18/2/35 21/70/36 8/71/37
f 15/72/16 8/73/15 34/74/38 33/75/38
f 9/76/1 3/10/1 19/77/1 27/78/1
f 27/79/1 19/80/1 18/81/1 28/82/1
f 42/83/39 33/84/39 34/74/39 40/85/39
f 31/86/39 32/87/39 37/88/39 41/89/39
f 30/90/39 13/91/39 38/92/39 29/93/39
f 45/94/39 39/95/39 35/96/39 36/8/39
f 6/97/33 20/98/32 13/99/40 30/100/40
f 7/101/26 14/102/25 37/88/41 32/103/41
f 43/104/20 6/105/19 30/106/42 29/93/42
f 46/107/43 22/108/43 35/96/43 39/109/43
f 8/110/37 21/111/36 40/112/44 34/113/44
f 47/114/12 7/115/11 32/116/45 31/117/45
f 21/118/46 24/119/46 42/120/46 40/85/46
f 20/121/43 23/122/43 38/92/43 13/123/43
f 23/124/29 43/125/29 29/126/29 38/127/29
f 44/128/27 46/129/27 39/130/27 45/131/27
f 48/132/46 47/133/46 31/134/46 41/89/46
usemtl water01
f 9/76/22 10/51/17 43/135/20 44/136/3
f 11/137/24 12/138/13 15/139/16 14/140/25
f 48/141/39 14/142/39 15/143/39 24/144/39
f 23/145/39 48/146/39 24/147/39 46/148/39
f 16/54/31 17/149/9 47/150/12 20/151/32
f 18/152/35 19/153/5 22/154/8 21/155/36
f 46/156/39 24/157/39 21/158/39 22/159/39
f 20/160/39 47/161/39 48/162/39 23/163/39
f 43/164/39 23/165/39 46/166/39 44/167/39
