# Blender v3.0.0 OBJ File: ''
# www.blender.org
mtllib ForestRiverCrossingend.mtl
o ForestEnd_Plane.008
v -0.500000 -0.000000 0.500000
v 0.500000 -0.000000 0.500000
v -0.500000 0.000000 -0.500000
v 0.500000 0.000000 -0.500000
v -0.500000 0.050000 -0.500000
v -0.500000 0.050000 0.500000
v 0.500000 0.050000 0.500000
v 0.500000 0.050000 -0.500000
v -0.500000 0.000000 -0.333334
v -0.500000 0.000000 -0.166667
v -0.500000 0.000000 -0.000000
v -0.500000 -0.000000 0.166666
v -0.500000 -0.000000 0.333333
v 0.500000 -0.000000 0.333333
v 0.500000 -0.000000 0.166666
v 0.500000 0.000000 -0.000000
v 0.500000 0.000000 -0.166667
v 0.500000 0.000000 -0.333334
v -0.500000 0.050000 -0.333334
v -0.500000 0.050000 -0.166667
v -0.500000 0.050000 -0.000000
v -0.500000 0.050000 0.166666
v -0.500000 0.050000 0.333333
v 0.500000 0.050000 0.333333
v 0.500000 0.050000 0.166666
v 0.500000 0.050000 -0.000000
v 0.500000 0.050000 -0.166667
v 0.500000 0.050000 -0.333334
v -0.333333 -0.000000 0.500000
v -0.166667 -0.000000 0.500000
v 0.000000 -0.000000 0.500000
v 0.166667 -0.000000 0.500000
v 0.333333 -0.000000 0.500000
v 0.333333 0.000000 -0.500000
v 0.166667 0.000000 -0.500000
v -0.000000 0.000000 -0.500000
v -0.166667 0.000000 -0.500000
v -0.333333 0.000000 -0.500000
v -0.333333 0.050000 0.500000
v -0.166667 0.050000 0.500000
v 0.000000 0.050000 0.500000
v 0.166667 0.050000 0.500000
v 0.333333 0.050000 0.500000
v 0.333333 0.050000 -0.500000
v 0.166667 0.050000 -0.500000
v -0.000000 0.050000 -0.500000
v -0.166667 0.050000 -0.500000
v -0.333333 0.050000 -0.500000
v 0.333333 0.050000 0.333333
v 0.166667 0.050000 0.333333
v -0.000000 0.050000 0.333333
v -0.166667 0.050000 0.333333
v -0.333333 0.050000 0.333333
v 0.333333 0.050000 0.166666
v 0.166667 0.050000 0.166666
v -0.000000 0.050000 0.166666
v -0.166667 0.050000 0.166666
v -0.333333 0.050000 0.166666
v 0.333333 0.050000 -0.000000
v 0.166667 0.050000 -0.000000
v -0.166667 0.050000 -0.000000
v -0.333333 0.050000 -0.000000
v 0.333333 0.050000 -0.166667
v 0.166667 0.050000 -0.166667
v -0.000000 0.050000 -0.166667
v -0.166667 0.050000 -0.166667
v -0.333333 0.050000 -0.166667
v 0.333333 0.050000 -0.333334
v 0.166667 0.050000 -0.333334
v -0.000000 0.050000 -0.333334
v -0.166667 0.050000 -0.333334
v -0.333333 0.050000 -0.333334
v -0.333333 -0.000000 0.333333
v -0.166667 -0.000000 0.333333
v 0.000000 -0.000000 0.333333
v 0.166667 -0.000000 0.333333
v 0.333333 -0.000000 0.333333
v -0.333333 -0.000000 0.166666
v -0.166667 -0.000000 0.166666
v 0.000000 -0.000000 0.166666
v 0.166667 -0.000000 0.166666
v 0.333333 -0.000000 0.166666
v -0.333333 0.000000 -0.000000
v -0.166667 0.000000 -0.000000
v 0.000000 0.000000 -0.000000
v 0.166667 0.000000 -0.000000
v 0.333333 0.000000 -0.000000
v -0.333333 0.000000 -0.166667
v -0.166667 0.000000 -0.166667
v 0.000000 0.000000 -0.166667
v 0.166667 0.000000 -0.166667
v 0.333333 0.000000 -0.166667
v -0.333333 0.000000 -0.333334
v -0.166667 0.000000 -0.333334
v 0.000000 0.000000 -0.333334
v 0.166667 0.000000 -0.333334
v 0.333333 0.000000 -0.333334
v -0.500000 0.100000 0.333333
v -0.500000 0.100000 0.500000
v 0.333333 0.100000 0.500000
v 0.500000 0.100000 0.500000
v 0.500000 0.100000 -0.333334
v 0.500000 0.100000 -0.500000
v -0.333333 0.100000 -0.500000
v -0.500000 0.100000 -0.500000
v -0.500000 0.100000 -0.333334
v -0.500000 0.100000 -0.166667
v -0.500000 0.100000 -0.000000
v -0.500000 0.100000 0.166666
v 0.500000 0.100000 0.333333
v 0.500000 0.100000 0.166666
v 0.500000 0.100000 -0.166667
v -0.333333 0.100000 0.333333
v -0.333333 0.100000 0.166666
v -0.333333 0.100000 -0.000000
v -0.333333 0.100000 -0.166667
v -0.333333 0.100000 -0.333334
v -0.333333 0.100000 0.500000
v -0.166667 0.100000 0.500000
v 0.000000 0.100000 0.500000
v 0.166667 0.100000 0.500000
v 0.333333 0.100000 -0.500000
v 0.166667 0.100000 -0.500000
v -0.000000 0.100000 -0.500000
v -0.166667 0.100000 -0.500000
v 0.333333 0.100000 0.333333
v 0.166667 0.100000 0.333333
v -0.000000 0.100000 0.333333
v -0.166667 0.100000 0.333333
v 0.333333 0.100000 0.166666
v 0.333333 0.100000 -0.166667
v 0.333333 0.100000 -0.333334
v 0.166667 0.100000 -0.333334
v -0.000000 0.100000 -0.333334
v -0.166667 0.100000 -0.333334
v 0.166667 0.032075 0.166666
v -0.000000 0.032075 0.166666
v -0.166667 0.032075 0.166666
v 0.166667 0.032075 -0.000000
v -0.000000 0.032075 -0.000000
v -0.166667 0.032075 -0.000000
v 0.166667 0.032075 -0.166667
v -0.000000 0.032075 -0.166667
v -0.166667 0.032075 -0.166667
vt 0.535000 0.535000
vt 0.715000 0.535000
vt 0.715000 0.715000
vt 0.535000 0.715000
vt 0.785000 0.785000
vt 0.965000 0.785000
vt 0.965000 0.965000
vt 0.785000 0.965000
vt 0.535000 0.535000
vt 0.715000 0.535000
vt 0.715000 0.715000
vt 0.535000 0.715000
vt 0.535000 0.535000
vt 0.715000 0.535000
vt 0.715000 0.715000
vt 0.535000 0.715000
vt 0.535000 0.535000
vt 0.715000 0.535000
vt 0.715000 0.715000
vt 0.535000 0.715000
vt 0.535000 0.535000
vt 0.715000 0.535000
vt 0.715000 0.715000
vt 0.535000 0.715000
vt 0.535000 0.535000
vt 0.715000 0.535000
vt 0.715000 0.715000
vt 0.535000 0.715000
vt 0.535000 0.535000
vt 0.715000 0.535000
vt 0.715000 0.715000
vt 0.535000 0.715000
vt 0.535000 0.535000
vt 0.715000 0.535000
vt 0.715000 0.715000
vt 0.535000 0.715000
vt 0.535000 0.535000
vt 0.715000 0.535000
vt 0.715000 0.715000
vt 0.535000 0.715000
vt 0.535000 0.535000
vt 0.715000 0.535000
vt 0.715000 0.715000
vt 0.535000 0.715000
vt 0.535000 0.535000
vt 0.715000 0.535000
vt 0.715000 0.715000
vt 0.535000 0.715000
vt 0.535000 0.535000
vt 0.715000 0.535000
vt 0.715000 0.715000
vt 0.535000 0.715000
vt 0.535000 0.535000
vt 0.715000 0.535000
vt 0.715000 0.715000
vt 0.535000 0.715000
vt 0.785000 0.785000
vt 0.965000 0.785000
vt 0.965000 0.965000
vt 0.785000 0.965000
vt 0.785000 0.785000
vt 0.965000 0.785000
vt 0.965000 0.965000
vt 0.785000 0.965000
vt 0.785000 0.785000
vt 0.965000 0.785000
vt 0.965000 0.965000
vt 0.785000 0.965000
vt 0.715000 0.535000
vt 0.715000 0.715000
vt 0.535000 0.715000
vt 0.535000 0.535000
vt 0.715000 0.535000
vt 0.715000 0.715000
vt 0.535000 0.715000
vt 0.535000 0.535000
vt 0.715000 0.535000
vt 0.715000 0.715000
vt 0.535000 0.715000
vt 0.535000 0.535000
vt 0.715000 0.535000
vt 0.715000 0.715000
vt 0.535000 0.715000
vt 0.535000 0.535000
vt 0.715000 0.535000
vt 0.715000 0.715000
vt 0.535000 0.715000
vt 0.715000 0.715000
vt 0.535000 0.715000
vt 0.535000 0.535000
vt 0.715000 0.535000
vt 0.715000 0.715000
vt 0.535000 0.715000
vt 0.535000 0.535000
vt 0.715000 0.535000
vt 0.715000 0.715000
vt 0.535000 0.715000
vt 0.535000 0.535000
vt 0.715000 0.535000
vt 0.715000 0.715000
vt 0.535000 0.715000
vt 0.535000 0.535000
vt 0.715000 0.535000
vt 0.715000 0.715000
vt 0.535000 0.715000
vt 0.715000 0.715000
vt 0.535000 0.715000
vt 0.535000 0.535000
vt 0.715000 0.535000
vt 0.715000 0.715000
vt 0.535000 0.715000
vt 0.535000 0.535000
vt 0.715000 0.535000
vt 0.715000 0.715000
vt 0.535000 0.715000
vt 0.535000 0.535000
vt 0.715000 0.535000
vt 0.715000 0.715000
vt 0.535000 0.715000
vt 0.535000 0.535000
vt 0.715000 0.535000
vt 0.715000 0.715000
vt 0.535000 0.715000
vt 0.715000 0.715000
vt 0.535000 0.715000
vt 0.535000 0.535000
vt 0.715000 0.535000
vt 0.715000 0.715000
vt 0.535000 0.715000
vt 0.535000 0.535000
vt 0.715000 0.535000
vt 0.715000 0.715000
vt 0.535000 0.715000
vt 0.535000 0.535000
vt 0.715000 0.535000
vt 0.715000 0.715000
vt 0.535000 0.715000
vt 0.535000 0.535000
vt 0.715000 0.535000
vt 0.715000 0.715000
vt 0.535000 0.715000
vt 0.715000 0.715000
vt 0.535000 0.715000
vt 0.535000 0.535000
vt 0.715000 0.535000
vt 0.715000 0.715000
vt 0.535000 0.715000
vt 0.535000 0.535000
vt 0.715000 0.535000
vt 0.715000 0.715000
vt 0.535000 0.715000
vt 0.535000 0.535000
vt 0.715000 0.535000
vt 0.715000 0.715000
vt 0.535000 0.715000
vt 0.535000 0.535000
vt 0.715000 0.535000
vt 0.715000 0.715000
vt 0.535000 0.715000
vt 0.535000 0.535000
vt 0.715000 0.715000
vt 0.535000 0.715000
vt 0.535000 0.535000
vt 0.715000 0.535000
vt 0.715000 0.715000
vt 0.535000 0.715000
vt 0.535000 0.535000
vt 0.715000 0.535000
vt 0.715000 0.715000
vt 0.535000 0.715000
vt 0.535000 0.535000
vt 0.715000 0.535000
vt 0.715000 0.715000
vt 0.535000 0.715000
vt 0.535000 0.535000
vt 0.715000 0.535000
vt 0.715000 0.715000
vt 0.535000 0.715000
vt 0.785000 0.785000
vt 0.965000 0.785000
vt 0.965000 0.965000
vt 0.785000 0.965000
vt 0.785000 0.785000
vt 0.965000 0.785000
vt 0.965000 0.965000
vt 0.785000 0.965000
vt 0.785000 0.785000
vt 0.965000 0.785000
vt 0.965000 0.965000
vt 0.785000 0.965000
vt 0.785000 0.785000
vt 0.965000 0.785000
vt 0.965000 0.965000
vt 0.785000 0.965000
vt 0.785000 0.785000
vt 0.965000 0.785000
vt 0.965000 0.965000
vt 0.785000 0.965000
vt 0.785000 0.785000
vt 0.965000 0.785000
vt 0.965000 0.965000
vt 0.785000 0.965000
vt 0.785000 0.785000
vt 0.965000 0.785000
vt 0.965000 0.965000
vt 0.785000 0.965000
vt 0.785000 0.785000
vt 0.965000 0.785000
vt 0.965000 0.965000
vt 0.785000 0.965000
vt 0.785000 0.785000
vt 0.965000 0.785000
vt 0.965000 0.965000
vt 0.785000 0.965000
vt 0.715000 0.535000
vt 0.715000 0.715000
vt 0.535000 0.715000
vt 0.715000 0.535000
vt 0.715000 0.715000
vt 0.535000 0.715000
vt 0.715000 0.535000
vt 0.715000 0.715000
vt 0.535000 0.715000
vt 0.715000 0.535000
vt 0.715000 0.715000
vt 0.535000 0.715000
vt 0.715000 0.535000
vt 0.715000 0.715000
vt 0.535000 0.715000
vt 0.535000 0.535000
vt 0.715000 0.715000
vt 0.535000 0.715000
vt 0.535000 0.535000
vt 0.715000 0.535000
vt 0.715000 0.715000
vt 0.535000 0.715000
vt 0.535000 0.535000
vt 0.715000 0.535000
vt 0.715000 0.715000
vt 0.535000 0.715000
vt 0.535000 0.535000
vt 0.715000 0.535000
vt 0.715000 0.715000
vt 0.535000 0.715000
vt 0.535000 0.535000
vt 0.715000 0.535000
vt 0.715000 0.715000
vt 0.535000 0.715000
vt 0.785000 0.785000
vt 0.965000 0.785000
vt 0.965000 0.965000
vt 0.785000 0.965000
vt 0.785000 0.785000
vt 0.965000 0.785000
vt 0.965000 0.965000
vt 0.785000 0.965000
vt 0.785000 0.785000
vt 0.965000 0.785000
vt 0.965000 0.965000
vt 0.785000 0.965000
vt 0.785000 0.785000
vt 0.965000 0.785000
vt 0.965000 0.965000
vt 0.785000 0.965000
vt 0.785000 0.785000
vt 0.965000 0.785000
vt 0.965000 0.965000
vt 0.785000 0.965000
vt 0.715000 0.715000
vt 0.535000 0.715000
vt 0.535000 0.535000
vt 0.715000 0.715000
vt 0.535000 0.715000
vt 0.535000 0.535000
vt 0.715000 0.715000
vt 0.535000 0.715000
vt 0.535000 0.535000
vt 0.715000 0.715000
vt 0.535000 0.715000
vt 0.535000 0.535000
vt 0.715000 0.715000
vt 0.535000 0.715000
vt 0.785000 0.785000
vt 0.965000 0.785000
vt 0.965000 0.965000
vt 0.785000 0.785000
vt 0.965000 0.785000
vt 0.785000 0.785000
vt 0.965000 0.785000
vt 0.785000 0.785000
vt 0.965000 0.785000
vt 0.785000 0.785000
vt 0.965000 0.785000
vt 0.965000 0.965000
vt 0.785000 0.965000
vt 0.785000 0.785000
vt 0.965000 0.785000
vt 0.785000 0.965000
vt 0.785000 0.785000
vt 0.965000 0.785000
vt 0.965000 0.965000
vt 0.785000 0.965000
vt 0.785000 0.785000
vt 0.965000 0.785000
vt 0.785000 0.965000
vt 0.785000 0.785000
vt 0.965000 0.785000
vt 0.965000 0.965000
vt 0.785000 0.785000
vt 0.965000 0.785000
vt 0.965000 0.965000
vt 0.785000 0.785000
vt 0.965000 0.785000
vt 0.965000 0.965000
vt 0.785000 0.965000
vt 0.785000 0.785000
vt 0.965000 0.785000
vt 0.785000 0.965000
vt 0.785000 0.785000
vt 0.965000 0.785000
vt 0.785000 0.965000
vt 0.785000 0.785000
vt 0.965000 0.785000
vt 0.785000 0.965000
vt 0.785000 0.785000
vt 0.965000 0.785000
vt 0.785000 0.965000
vt 0.785000 0.785000
vt 0.965000 0.785000
vt 0.785000 0.785000
vt 0.965000 0.785000
vt 0.785000 0.785000
vt 0.965000 0.785000
vt 0.785000 0.785000
vt 0.965000 0.785000
vt 0.785000 0.965000
vt 0.785000 0.785000
vt 0.965000 0.785000
vt 0.965000 0.965000
vt 0.785000 0.965000
vt 0.785000 0.785000
vt 0.965000 0.785000
vt 0.785000 0.785000
vt 0.965000 0.785000
vt 0.965000 0.965000
vt 0.785000 0.785000
vt 0.965000 0.785000
vt 0.785000 0.785000
vt 0.965000 0.785000
vt 0.965000 0.965000
vt 0.785000 0.965000
vt 0.785000 0.785000
vt 0.965000 0.785000
vt 0.965000 0.965000
vt 0.785000 0.785000
vt 0.965000 0.785000
vt 0.785000 0.785000
vt 0.965000 0.785000
vt 0.965000 0.965000
vt 0.785000 0.965000
vt 0.785000 0.785000
vt 0.965000 0.785000
vt 0.785000 0.965000
vt 0.785000 0.785000
vt 0.965000 0.785000
vt 0.965000 0.965000
vt 0.785000 0.785000
vt 0.965000 0.785000
vt 0.965000 0.965000
vt 0.785000 0.965000
vt 0.785000 0.785000
vt 0.965000 0.785000
vt 0.965000 0.965000
vt 0.785000 0.965000
vt 0.785000 0.785000
vt 0.965000 0.785000
vt 0.965000 0.965000
vt 0.785000 0.785000
vt 0.965000 0.785000
vt 0.965000 0.965000
vt 0.785000 0.965000
vt 0.785000 0.785000
vt 0.965000 0.785000
vt 0.965000 0.965000
vt 0.785000 0.785000
vt 0.965000 0.785000
vt 0.965000 0.965000
vt 0.785000 0.965000
vt 0.785000 0.785000
vt 0.965000 0.785000
vt 0.965000 0.965000
vt 0.785000 0.965000
vt 0.785000 0.785000
vt 0.965000 0.785000
vt 0.965000 0.965000
vt 0.785000 0.785000
vt 0.965000 0.785000
vt 0.785000 0.965000
vt 0.535000 0.535000
vt 0.715000 0.535000
vt 0.715000 0.715000
vt 0.535000 0.715000
vt 0.535000 0.535000
vt 0.715000 0.535000
vt 0.715000 0.715000
vt 0.535000 0.715000
vt 0.535000 0.535000
vt 0.715000 0.535000
vt 0.535000 0.715000
vt 0.535000 0.535000
vt 0.715000 0.535000
vt 0.535000 0.715000
vt 0.535000 0.535000
vt 0.715000 0.535000
vt 0.715000 0.715000
vt 0.535000 0.715000
vt 0.535000 0.535000
vt 0.715000 0.535000
vt 0.715000 0.715000
vt 0.535000 0.715000
vt 0.535000 0.535000
vt 0.715000 0.535000
vt 0.715000 0.715000
vt 0.535000 0.715000
vt 0.535000 0.535000
vt 0.715000 0.535000
vt 0.715000 0.715000
vt 0.535000 0.715000
vt 0.535000 0.535000
vt 0.715000 0.535000
vt 0.715000 0.715000
vt 0.535000 0.715000
vt 0.715000 0.535000
vt 0.715000 0.715000
vt 0.535000 0.535000
vt 0.715000 0.535000
vt 0.535000 0.535000
vt 0.715000 0.535000
vt 0.715000 0.715000
vt 0.535000 0.715000
vt 0.535000 0.535000
vt 0.715000 0.535000
vt 0.715000 0.715000
vt 0.535000 0.715000
vt 0.535000 0.715000
vt 0.535000 0.535000
vt 0.535000 0.715000
vt 0.715000 0.715000
vt 0.715000 0.715000
vt 0.535000 0.715000
vt 0.535000 0.535000
vt 0.715000 0.535000
vt 0.715000 0.715000
vt 0.535000 0.715000
vt 0.535000 0.535000
vt 0.715000 0.535000
vt 0.715000 0.715000
vt 0.535000 0.715000
vt 0.535000 0.535000
vt 0.715000 0.535000
vt 0.535000 0.535000
vt 0.715000 0.535000
vt 0.715000 0.715000
vt 0.535000 0.715000
vt 0.535000 0.535000
vt 0.715000 0.535000
vt 0.715000 0.715000
vt 0.535000 0.715000
vt 0.785000 0.035000
vt 0.965000 0.035000
vt 0.965000 0.215000
vt 0.785000 0.215000
vt 0.785000 0.035000
vt 0.965000 0.035000
vt 0.965000 0.215000
vt 0.785000 0.215000
vt 0.785000 0.035000
vt 0.965000 0.035000
vt 0.965000 0.215000
vt 0.785000 0.215000
vt 0.785000 0.035000
vt 0.965000 0.035000
vt 0.965000 0.215000
vt 0.785000 0.215000
vt 0.535000 0.715000
vt 0.535000 0.535000
vt 0.715000 0.535000
vt 0.715000 0.715000
vt 0.715000 0.715000
vt 0.535000 0.715000
vt 0.535000 0.535000
vt 0.715000 0.535000
vn -0.0000 -1.0000 -0.0000
vn 0.0000 0.0000 -1.0000
vn 0.0000 0.0000 1.0000
vn 1.0000 0.0000 0.0000
vn -1.0000 0.0000 0.0000
vn 0.0000 1.0000 0.0000
usemtl Forest_M.001
s 1
f 97/1/1 34/2/1 4/3/1 18/4/1
f 49/5/2 50/6/2 127/7/2 126/8/2
f 38/9/2 3/10/2 5/11/2 48/12/2
f 33/13/3 2/14/3 7/15/3 43/16/3
f 18/17/4 4/18/4 8/19/4 28/20/4
f 13/21/5 1/22/5 6/23/5 23/24/5
f 3/25/5 9/26/5 19/27/5 5/28/5
f 9/29/5 10/30/5 20/31/5 19/32/5
f 10/33/5 11/34/5 21/35/5 20/36/5
f 11/37/5 12/38/5 22/39/5 21/40/5
f 12/41/5 13/42/5 23/43/5 22/44/5
f 2/45/4 14/46/4 24/47/4 7/48/4
f 14/49/4 15/50/4 25/51/4 24/52/4
f 17/53/4 18/54/4 28/55/4 27/56/4
f 54/57/5 49/58/5 126/59/5 130/60/5
f 43/61/3 7/62/3 101/63/3 100/64/3
f 62/65/4 67/66/4 116/67/4 115/68/4
f 33/13/1 77/69/1 14/70/1 2/71/1
f 77/72/1 82/73/1 15/74/1 14/75/1
f 82/76/1 87/77/1 16/78/1 15/79/1
f 87/80/1 92/81/1 17/82/1 16/83/1
f 92/84/1 97/85/1 18/86/1 17/87/1
f 10/33/1 9/26/1 93/88/1 88/89/1
f 88/90/1 93/91/1 94/92/1 89/93/1
f 89/94/1 94/95/1 95/96/1 90/97/1
f 90/98/1 95/99/1 96/100/1 91/101/1
f 91/102/1 96/103/1 97/104/1 92/105/1
f 11/37/1 10/30/1 88/106/1 83/107/1
f 83/108/1 88/109/1 89/110/1 84/111/1
f 84/112/1 89/113/1 90/114/1 85/115/1
f 85/116/1 90/117/1 91/118/1 86/119/1
f 86/120/1 91/121/1 92/122/1 87/123/1
f 12/41/1 11/34/1 83/124/1 78/125/1
f 78/126/1 83/127/1 84/128/1 79/129/1
f 79/130/1 84/131/1 85/132/1 80/133/1
f 80/134/1 85/135/1 86/136/1 81/137/1
f 81/138/1 86/139/1 87/140/1 82/141/1
f 13/21/1 12/38/1 78/142/1 73/143/1
f 73/144/1 78/145/1 79/146/1 74/147/1
f 74/148/1 79/149/1 80/150/1 75/151/1
f 75/152/1 80/153/1 81/154/1 76/155/1
f 76/156/1 81/157/1 82/158/1 77/159/1
f 1/160/1 13/42/1 73/161/1 29/162/1
f 29/163/1 73/164/1 74/165/1 30/166/1
f 30/167/1 74/168/1 75/169/1 31/170/1
f 31/171/1 75/172/1 76/173/1 32/174/1
f 32/175/1 76/176/1 77/177/1 33/178/1
f 27/179/4 28/180/4 102/181/4 112/182/4
f 23/183/5 6/184/5 99/185/5 98/186/5
f 47/187/2 48/188/2 104/189/2 125/190/2
f 68/191/5 63/192/5 131/193/5 132/194/5
f 46/195/2 47/196/2 125/197/2 124/198/2
f 72/199/3 71/200/3 135/201/3 117/202/3
f 45/203/2 46/204/2 124/205/2 123/206/2
f 24/207/4 25/208/4 111/209/4 110/210/4
f 71/211/3 70/212/3 134/213/3 135/214/3
f 1/160/3 29/215/3 39/216/3 6/217/3
f 29/163/3 30/218/3 40/219/3 39/220/3
f 30/167/3 31/221/3 41/222/3 40/223/3
f 31/171/3 32/224/3 42/225/3 41/226/3
f 32/175/3 33/227/3 43/228/3 42/229/3
f 4/230/2 34/2/2 44/231/2 8/232/2
f 34/233/2 35/234/2 45/235/2 44/236/2
f 35/237/2 36/238/2 46/239/2 45/240/2
f 36/241/2 37/242/2 47/243/2 46/244/2
f 37/245/2 38/246/2 48/247/2 47/248/2
f 53/249/4 58/250/4 114/251/4 113/252/4
f 44/253/2 45/254/2 123/255/2 122/256/2
f 7/257/4 24/258/4 110/259/4 101/260/4
f 70/261/3 69/262/3 133/263/3 134/264/3
f 8/265/2 44/266/2 122/267/2 103/268/2
f 9/29/1 3/10/1 38/269/1 93/270/1
f 93/271/1 38/246/1 37/272/1 94/273/1
f 94/274/1 37/242/1 36/275/1 95/276/1
f 95/277/1 36/238/1 35/278/1 96/279/1
f 96/280/1 35/234/1 34/281/1 97/282/1
f 132/283/6 102/284/6 103/285/6 122/256/6
f 100/286/6 101/287/6 110/259/6 126/8/6
f 126/288/6 110/289/6 111/209/6 130/60/6
f 131/290/6 112/291/6 102/181/6 132/194/6
f 107/292/6 116/293/6 117/294/6 106/295/6
f 108/296/6 115/297/6 116/67/6 107/298/6
f 109/299/6 114/300/6 115/301/6 108/302/6
f 98/303/6 113/304/6 114/251/6 109/305/6
f 99/306/6 118/307/6 113/308/6 98/186/6
f 118/309/6 119/310/6 129/311/6 113/252/6
f 119/312/6 120/313/6 128/314/6 129/315/6
f 120/316/6 121/317/6 127/7/6 128/318/6
f 121/319/6 100/320/6 126/59/6 127/321/6
f 106/322/6 117/323/6 104/189/6 105/324/6
f 117/325/6 135/326/6 125/197/6 104/327/6
f 135/328/6 134/329/6 124/205/6 125/190/6
f 134/330/6 133/331/6 123/255/6 124/198/6
f 133/332/6 132/333/6 122/267/6 123/206/6
f 28/334/4 8/335/4 103/285/4 102/336/4
f 63/337/3 27/338/3 112/339/3 131/340/3
f 50/341/2 51/342/2 128/314/2 127/321/2
f 48/343/2 5/344/2 105/345/2 104/327/2
f 51/346/2 52/347/2 129/311/2 128/318/2
f 6/348/3 39/349/3 118/350/3 99/351/3
f 5/352/5 19/353/5 106/354/5 105/324/5
f 52/355/2 53/356/2 113/308/2 129/315/2
f 39/357/3 40/358/3 119/359/3 118/360/3
f 58/361/4 62/362/4 115/301/4 114/363/4
f 19/364/5 20/365/5 107/366/5 106/295/5
f 25/367/2 54/368/2 130/369/2 111/370/2
f 40/371/3 41/372/3 120/373/3 119/374/3
f 20/375/5 21/376/5 108/377/5 107/298/5
f 41/378/3 42/379/3 121/380/3 120/381/3
f 21/382/5 22/383/5 109/384/5 108/302/5
f 42/385/3 43/386/3 100/387/3 121/388/3
f 69/389/3 68/390/3 132/391/3 133/392/3
f 22/393/5 23/394/5 98/395/5 109/305/5
f 67/396/4 72/397/4 117/294/4 116/398/4
usemtl waterend
f 15/399/4 16/400/4 26/401/4 25/402/4
f 16/403/4 17/404/4 27/405/4 26/406/4
f 54/407/6 25/408/6 26/401/6 59/409/6
f 59/410/6 26/411/6 27/405/6 63/412/6
f 67/413/6 66/414/6 71/415/6 72/416/6
f 66/417/6 65/418/6 70/419/6 71/420/6
f 65/421/6 64/422/6 69/423/6 70/424/6
f 64/425/6 63/426/6 68/427/6 69/428/6
f 62/429/6 61/430/6 66/431/6 67/432/6
f 66/431/4 61/430/4 141/433/4 144/434/4
f 64/422/3 65/421/3 143/435/3 142/436/3
f 60/437/6 59/438/6 63/439/6 64/440/6
f 58/441/6 57/442/6 61/443/6 62/444/6
f 60/437/5 64/440/5 142/445/5 139/446/5
f 57/447/2 56/448/2 137/449/2 138/450/2
f 55/451/6 54/452/6 59/453/6 60/454/6
f 53/455/6 52/456/6 57/457/6 58/458/6
f 52/459/6 51/460/6 56/448/6 57/447/6
f 51/461/6 50/462/6 55/463/6 56/464/6
f 50/465/6 49/466/6 54/467/6 55/468/6
f 141/469/6 140/470/6 143/471/6 144/472/6
f 140/473/6 139/474/6 142/475/6 143/476/6
f 138/477/6 137/478/6 140/479/6 141/480/6
f 137/481/6 136/482/6 139/483/6 140/484/6
f 55/451/5 60/454/5 139/485/5 136/486/5
f 61/443/4 57/442/4 138/487/4 141/488/4
f 56/464/2 55/463/2 136/489/2 137/490/2
f 65/418/3 66/417/3 144/491/3 143/492/3
